<svg style="display: none;">
    <symbol id="apple" viewBox="0 0 24 24">
        <path d="M12.152 6.896c-.948 0-2.415-1.078-3.96-1.04-2.04.027-3.91 1.183-4.961 3.014-2.117 3.675-.546 9.103 1.519 12.09 1.013 1.454 2.208 3.09 3.792 3.039 1.52-.065 2.09-.987 3.935-.987 1.831 0 2.35.987 3.96.948 1.637-.026 2.676-1.48 3.676-2.948 1.156-1.688 1.636-3.325 1.662-3.415-.039-.013-3.182-1.221-3.22-4.857-.026-3.04 2.48-4.494 2.597-4.559-1.429-2.09-3.623-2.324-4.39-2.376-2-.156-3.675 1.09-4.61 1.09zM15.53 3.83c.843-1.012 1.4-2.427 1.245-3.83-1.207.052-2.662.805-3.532 1.818-.78.896-1.454 2.338-1.273 3.714 1.338.104 2.715-.688 3.559-1.701"/>
    </symbol>
    <symbol id="cc" viewBox="0 0 48 24">
        <path d="M 11.978516 0 C 8.6500171 -2.9605947e-16 5.8422643 1.1641888 3.5566406 3.4921875 C 2.3997662 4.6494368 1.5172809 5.9614071 0.91015625 7.4257812 C 0.30303159 8.8901555 0 10.414126 0 12 C -1.4802974e-16 13.600124 0.30039096 15.121454 0.90039062 16.564453 C 1.5003903 18.007453 2.3752662 19.303376 3.5253906 20.453125 C 4.6755149 21.602875 5.9760321 22.481141 7.4257812 23.087891 C 8.8759055 23.695765 10.393017 24 11.978516 24 C 13.564015 24 15.100563 23.692374 16.585938 23.078125 C 18.072061 22.463875 19.401141 21.57875 20.572266 20.421875 C 21.700265 19.322001 22.554188 18.052688 23.132812 16.617188 C 23.710688 15.182064 24 13.642874 24 12 C 24 10.371376 23.706469 8.8329367 23.121094 7.3828125 C 22.535345 5.9330633 21.676827 4.6420462 20.548828 3.5136719 C 18.191954 1.1710482 15.335139 0 11.978516 0 z M 24 12 C 24 15.285749 25.178282 18.105642 27.535156 20.462891 C 29.92053 22.820139 32.735143 24 35.978516 24 C 39.278139 24 42.141815 22.807998 44.570312 20.421875 C 46.856312 18.179376 48 15.371624 48 12 C 48 8.6430023 46.835811 5.7994518 44.507812 3.4707031 C 42.193314 1.1562044 39.349014 0 35.978516 0 C 32.663893 2.9605947e-16 29.849655 1.1577825 27.535156 3.4726562 C 25.178282 5.8726548 24 8.7146273 24 12 z M 12.021484 2.1640625 C 14.735732 2.1640625 17.056579 3.1299698 18.986328 5.0585938 C 19.914077 5.9878433 20.622547 7.0427663 21.107422 8.2285156 C 21.593046 9.414265 21.835938 10.671376 21.835938 12 C 21.835937 14.757748 20.900546 17.050407 19.029297 18.878906 C 18.057297 19.821656 16.968843 20.542344 15.761719 21.042969 C 14.553094 21.543219 13.306983 21.792969 12.021484 21.792969 C 10.721359 21.792969 9.478343 21.547438 8.2929688 21.054688 C 7.1064694 20.561187 6.0423589 19.848109 5.0996094 18.912109 C 4.1564849 17.976485 3.4331559 16.910421 2.9257812 15.716797 C 2.4180315 14.524673 2.1640625 13.285874 2.1640625 12 C 2.1640625 10.699876 2.4180315 9.454593 2.9257812 8.2617188 C 3.4327809 7.0688445 4.1564849 5.9925308 5.0996094 5.0351562 C 6.9712333 3.1211574 9.2787355 2.1640625 12.021484 2.1640625 z M 36.021484 2.1640625 C 38.735733 2.1640625 41.050845 3.1211574 42.964844 5.0351562 C 44.878468 6.9499052 45.835938 9.2715019 45.835938 12 C 45.835938 14.771624 44.891733 17.064657 43.005859 18.878906 C 41.020235 20.836779 38.692608 21.814453 36.021484 21.814453 C 33.335736 21.814453 31.020999 20.843639 29.078125 18.900391 C 27.135626 16.958642 26.164062 14.657249 26.164062 12 C 26.164062 9.3573769 27.14211 7.0354051 29.099609 5.0351562 C 30.985483 3.1211574 33.292986 2.1640625 36.021484 2.1640625 z M 36 4.2421875 C 34.885126 4.2421875 34.328125 4.8075475 34.328125 5.9355469 C 34.328125 7.0496713 34.885876 7.6074219 36 7.6074219 C 37.114125 7.6074219 37.671875 7.0496713 37.671875 5.9355469 C 37.671875 4.8067975 37.114875 4.2421875 36 4.2421875 z M 33.535156 8.25 C 33.321406 8.25 33.140609 8.3249845 32.990234 8.4746094 C 32.840609 8.6246093 32.765625 8.8069845 32.765625 9.0214844 L 32.765625 13.927734 L 34.136719 13.927734 L 34.136719 19.755859 L 37.865234 19.755859 L 37.865234 13.927734 L 39.236328 13.927734 L 39.236328 9.0214844 C 39.236328 8.8073595 39.156375 8.6246093 39 8.4746094 C 38.843251 8.3246095 38.664719 8.25 38.464844 8.25 L 33.535156 8.25 z M 8.6777344 8.2734375 C 7.662985 8.2734375 6.8242809 8.6080473 6.1601562 9.2792969 C 5.4960317 9.9509216 5.1640625 10.858954 5.1640625 12.001953 C 5.1640625 13.173077 5.4914379 14.087142 6.1484375 14.744141 C 6.8054371 15.401891 7.6708131 15.728516 8.7421875 15.728516 C 9.4138122 15.728516 10.029438 15.562563 10.585938 15.226562 C 11.143188 14.890938 11.578328 14.429875 11.892578 13.84375 L 10.414062 13.09375 C 10.127938 13.77925 9.6356715 14.123047 8.9355469 14.123047 C 8.4067972 14.123047 8.0058749 13.928844 7.734375 13.542969 C 7.4632502 13.157094 7.328125 12.64275 7.328125 12 C 7.328125 10.585501 7.8645475 9.8789062 8.9355469 9.8789062 C 9.1500468 9.8789062 9.3826876 9.9512502 9.6328125 10.09375 C 9.8825623 10.236625 10.091922 10.487125 10.263672 10.84375 L 11.871094 10.007812 C 11.227969 8.8505633 10.163859 8.2726875 8.6777344 8.2734375 z M 15.621094 8.2734375 C 14.606719 8.2734375 13.767266 8.6080473 13.103516 9.2792969 C 12.438641 9.9509216 12.107422 10.858954 12.107422 12.001953 C 12.107422 13.173077 12.431031 14.087142 13.082031 14.744141 C 13.731531 15.401891 14.599547 15.728516 15.685547 15.728516 C 16.342546 15.728516 16.950563 15.562563 17.507812 15.226562 C 18.064312 14.890938 18.505859 14.429875 18.833984 13.84375 L 17.333984 13.09375 C 17.048609 13.77925 16.556797 14.123047 15.857422 14.123047 C 15.327923 14.123047 14.927375 13.928844 14.65625 13.542969 C 14.385125 13.157094 14.25 12.64275 14.25 12 C 14.25 10.585501 14.786048 9.8789062 15.857422 9.8789062 C 16.085047 9.8789062 16.323719 9.9512502 16.574219 10.09375 C 16.823969 10.236625 17.035656 10.487125 17.207031 10.84375 L 18.792969 10.007812 C 18.164844 8.8505633 17.106843 8.2726875 15.621094 8.2734375 z"/>
    </symbol>
    <symbol id="github" viewBox="0 0 24 24">
        <path d="M12 .297c-6.63 0-12 5.373-12 12 0 5.303 3.438 9.8 8.205 11.385.6.113.82-.258.82-.577 0-.285-.01-1.04-.015-2.04-3.338.724-4.042-1.61-4.042-1.61C4.422 18.07 3.633 17.7 3.633 17.7c-1.087-.744.084-.729.084-.729 1.205.084 1.838 1.236 1.838 1.236 1.07 1.835 2.809 1.305 3.495.998.108-.776.417-1.305.76-1.605-2.665-.3-5.466-1.332-5.466-5.93 0-1.31.465-2.38 1.235-3.22-.135-.303-.54-1.523.105-3.176 0 0 1.005-.322 3.3 1.23.96-.267 1.98-.399 3-.405 1.02.006 2.04.138 3 .405 2.28-1.552 3.285-1.23 3.285-1.23.645 1.653.24 2.873.12 3.176.765.84 1.23 1.91 1.23 3.22 0 4.61-2.805 5.625-5.475 5.92.42.36.81 1.096.81 2.22 0 1.606-.015 2.896-.015 3.286 0 .315.21.69.825.57C20.565 22.092 24 17.592 24 12.297c0-6.627-5.373-12-12-12"/>
    </symbol>
    <symbol id="ivoox" viewBox="0 0 24 24">
        <path d="M 19.293559,0 H 4.7064407 C 2.1071186,0 0,2.1070676 0,4.7063268 V 19.293092 C 0,21.892351 2.1071186,24 4.7064407,24 H 19.293559 C 21.892881,24 24,21.892351 24,19.293092 V 4.7063268 C 24,2.1070676 21.892881,0 19.293559,0 Z M 10.128232,3.2930923 C 10.306634,3.0257864 10.555932,2.8171715 10.876707,2.6666667 11.198063,2.5161618 11.5723,2.4406189 12,2.4406189 c 0.4277,0 0.801937,0.075543 1.122712,0.2260478 0.320775,0.1505048 0.570654,0.3591197 0.749056,0.6264256 0.17782,0.2673058 0.267312,0.5816808 0.267312,0.9419626 0,0.3602818 -0.08949,0.6624537 -0.267312,0.9297595 C 13.693366,5.4321204 13.443487,5.6413162 13.122712,5.791821 12.801937,5.9423259 12.4277,6.0172878 12,6.0172878 c -0.4277,0 -0.801937,-0.074962 -1.123293,-0.2254668 C 10.555932,5.6413162 10.306634,5.4315392 10.128232,5.1619089 9.9498305,4.8928598 9.8609201,4.5819715 9.8609201,4.2292439 c 0,-0.3527275 0.08891,-0.6688458 0.2673119,-0.9361516 z m 6.283584,10.0907967 c 1.261017,0.591559 2.241356,1.41614 2.941598,2.474323 0.671186,1.014019 1.019274,2.177961 1.047748,3.491828 H 16.057337 C 16.034673,18.631219 15.874286,18.011186 15.571525,17.492264 15.24494,16.932084 14.777724,16.500327 14.171041,16.196993 13.564358,15.893659 12.840291,15.741411 12,15.741411 c -0.840291,0 -1.583535,0.152248 -2.1826634,0.455582 -0.5991284,0.303334 -1.0622761,0.739159 -1.388862,1.307474 C 8.1262954,18.0292 7.9653269,18.645166 7.9426634,19.35004 H 3.5982567 C 3.6226634,18.026876 3.9719128,16.858865 4.646586,15.847171 5.3468281,14.796542 6.3277482,13.975449 7.5876029,13.383889 8.2709927,13.063703 9.0165617,12.830682 9.8237288,12.683664 9.0165617,12.537227 8.2709927,12.304206 7.5876029,11.98402 6.3271671,11.39246 5.3468281,10.56788 4.646586,9.509116 3.9753995,8.4956781 3.6273123,7.3317353 3.5988378,6.0172878 H 7.9426634 C 7.9653264,6.7366891 8.1257143,7.3567226 8.4284746,7.8756446 8.7550605,8.4358248 9.2216949,8.8670008 9.8289588,9.170916 10.435642,9.47425 11.159709,9.6259171 12,9.6259171 c 0.840291,0 1.582954,-0.1516671 2.182663,-0.4550011 0.598548,-0.3039152 1.062277,-0.7391589 1.388862,-1.3074745 0.30218,-0.524733 0.462567,-1.1406987 0.485812,-1.8461537 h 4.343825 c -0.02441,1.3237451 -0.373075,2.4911745 -1.047748,3.5034502 -0.700242,1.050628 -1.681162,1.871722 -2.941598,2.463282 -0.68339,0.320186 -1.428959,0.553207 -2.235545,0.699644 0.806586,0.147018 1.552155,0.380039 2.235545,0.700225 z" />
    </symbol>
    <symbol id="linkedin" viewBox="0 0 24 24">
        <path d="M20.447 20.452h-3.554v-5.569c0-1.328-.027-3.037-1.852-3.037-1.853 0-2.136 1.445-2.136 2.939v5.667H9.351V9h3.414v1.561h.046c.477-.9 1.637-1.85 3.37-1.85 3.601 0 4.267 2.37 4.267 5.455v6.286zM5.337 7.433c-1.144 0-2.063-.926-2.063-2.065 0-1.138.92-2.063 2.063-2.063 1.14 0 2.064.925 2.064 2.063 0 1.139-.925 2.065-2.064 2.065zm1.782 13.019H3.555V9h3.564v11.452zM22.225 0H1.771C.792 0 0 .774 0 1.729v20.542C0 23.227.792 24 1.771 24h20.451C23.2 24 24 23.227 24 22.271V1.729C24 .774 23.2 0 22.222 0h.003z"/>
    </symbol>
    <symbol id="mastodon" viewBox="0 0 24 24">
        <path d="M23.268 5.313c-.35-2.578-2.617-4.61-5.304-5.004C17.51.242 15.792 0 11.813 0h-.03c-3.98 0-4.835.242-5.288.309C3.882.692 1.496 2.518.917 5.127.64 6.412.61 7.837.661 9.143c.074 1.874.088 3.745.26 5.611.118 1.24.325 2.47.62 3.68.55 2.237 2.777 4.098 4.96 4.857 2.336.792 4.849.923 7.256.38.265-.061.527-.132.786-.213.585-.184 1.27-.39 1.774-.753a.057.057 0 0 0 .023-.043v-1.809a.052.052 0 0 0-.02-.041.053.053 0 0 0-.046-.01 20.282 20.282 0 0 1-4.709.545c-2.73 0-3.463-1.284-3.674-1.818a5.593 5.593 0 0 1-.319-1.433.053.053 0 0 1 .066-.054c1.517.363 3.072.546 4.632.546.376 0 .75 0 1.125-.01 1.57-.044 3.224-.124 4.768-.422.038-.008.077-.015.11-.024 2.435-.464 4.753-1.92 4.989-5.604.008-.145.03-1.52.03-1.67.002-.512.167-3.63-.024-5.545zm-3.748 9.195h-2.561V8.29c0-1.309-.55-1.976-1.67-1.976-1.23 0-1.846.79-1.846 2.35v3.403h-2.546V8.663c0-1.56-.617-2.35-1.848-2.35-1.112 0-1.668.668-1.67 1.977v6.218H4.822V8.102c0-1.31.337-2.35 1.011-3.12.696-.77 1.608-1.164 2.74-1.164 1.311 0 2.302.5 2.962 1.498l.638 1.06.638-1.06c.66-.999 1.65-1.498 2.96-1.498 1.13 0 2.043.395 2.74 1.164.675.77 1.012 1.81 1.012 3.12z"/>
    </symbol>
    <symbol id="rss" viewBox="0 0 24 24">
        <path d="m 0,8.15625 v 4.584375 c 2.990625,0 5.821875,1.18125 7.940625,3.3 2.11875,2.11875 3.290625,4.95 3.290625,7.95 V 24 h 4.603125 c 0,-4.36875 -1.78125,-8.315625 -4.65,-11.19375 C 8.325,9.9375 4.36875,8.165625 0,8.15625 Z" id="path1" style="stroke-width:0.09375" /><path d="m 3.1875,17.615625 c -0.88125,0 -1.66875,0.35625 -2.25,0.9375 C 0.35625,19.134375 0,19.921875 0,20.803125 0,21.675 0.35625,22.4625 0.9375,23.04375 c 0.58125,0.571875 1.36875,0.928125 2.25,0.928125 0.88125,0 1.66875,-0.346875 2.25,-0.928125 C 6.01875,22.4625 6.375,21.675 6.375,20.803125 c 0,-0.88125 -0.35625,-1.66875 -0.9375,-2.25 -0.58125,-0.58125 -1.36875,-0.9375 -2.25,-0.9375 z" id="path2" style="stroke-width:0.09375" /><path d="M 16.959375,7.040625 C 12.61875,2.690625 6.628125,0 0.009375,0 V 4.584375 C 10.70625,4.59375 19.396875,13.303125 19.40625,24 H 24 C 24,17.38125 21.309375,11.390625 16.959375,7.040625 Z" id="path3" style="stroke-width:0.09375" />
    </symbol>
    <symbol id="spotify" viewBox="0 0 24 24">
        <path d="M12 0C5.4 0 0 5.4 0 12s5.4 12 12 12 12-5.4 12-12S18.66 0 12 0zm5.521 17.34c-.24.359-.66.48-1.021.24-2.82-1.74-6.36-2.101-10.561-1.141-.418.122-.779-.179-.899-.539-.12-.421.18-.78.54-.9 4.56-1.021 8.52-.6 11.64 1.32.42.18.479.659.301 1.02zm1.44-3.3c-.301.42-.841.6-1.262.3-3.239-1.98-8.159-2.58-11.939-1.38-.479.12-1.02-.12-1.14-.6-.12-.48.12-1.021.6-1.141C9.6 9.9 15 10.561 18.72 12.84c.361.181.54.78.241 1.2zm.12-3.36C15.24 8.4 8.82 8.16 5.16 9.301c-.6.179-1.2-.181-1.38-.721-.18-.601.18-1.2.72-1.381 4.26-1.26 11.28-1.02 15.721 1.621.539.3.719 1.02.419 1.56-.299.421-1.02.599-1.559.3z"/>
    </symbol>
    <symbol id="telegram" viewBox="0 0 24 24">
        <path d="M11.944 0A12 12 0 0 0 0 12a12 12 0 0 0 12 12 12 12 0 0 0 12-12A12 12 0 0 0 12 0a12 12 0 0 0-.056 0zm4.962 7.224c.1-.002.321.023.465.14a.506.506 0 0 1 .171.325c.016.093.036.306.02.472-.18 1.898-.962 6.502-1.36 8.627-.168.9-.499 1.201-.82 1.23-.696.065-1.225-.46-1.9-.902-1.056-.693-1.653-1.124-2.678-1.8-1.185-.78-.417-1.21.258-1.91.177-.184 3.247-2.977 3.307-3.23.007-.032.014-.15-.056-.212s-.174-.041-.249-.024c-.106.024-1.793 1.14-5.061 3.345-.48.33-.913.49-1.302.48-.428-.008-1.252-.241-1.865-.44-.752-.245-1.349-.374-1.297-.789.027-.216.325-.437.893-.663 3.498-1.524 5.83-2.529 6.998-3.014 3.332-1.386 4.025-1.627 4.476-1.635z"/>
    </symbol>
    <symbol id="x" viewBox="0 0 24 24">
        <path d="M14.234 10.162 22.977 0h-2.072l-7.591 8.824L7.251 0H.258l9.168 13.343L.258 24H2.33l8.016-9.318L16.749 24h6.993zm-2.837 3.299-.929-1.329L3.076 1.56h3.182l5.965 8.532.929 1.329 7.754 11.09h-3.182z"/>
    </symbol>
    <symbol id="youtube" viewBox="0 0 24 24">
        <path d="M23.498 6.186a3.016 3.016 0 0 0-2.122-2.136C19.505 3.545 12 3.545 12 3.545s-7.505 0-9.377.505A3.017 3.017 0 0 0 .502 6.186C0 8.07 0 12 0 12s0 3.93.502 5.814a3.016 3.016 0 0 0 2.122 2.136c1.871.505 9.376.505 9.376.505s7.505 0 9.377-.505a3.015 3.015 0 0 0 2.122-2.136C24 15.93 24 12 24 12s0-3.93-.502-5.814zM9.545 15.568V8.432L15.818 12l-6.273 3.568z"/>
    </symbol>
</svg>